<?xml version="1.0" encoding="UTF-8"?>
<svg id="Layer_2" data-name="Layer 2" xmlns="http://www.w3.org/2000/svg" viewBox="0 0 1835 524">
  <g>
    <path d="M231.37,441.76c-2.18-6.54-3.81-15.8-4.36-23.98-16.89,18.53-45.23,31.06-81.2,31.06-61.03,0-89.37-29.97-89.37-73.57,0-77.38,51.77-86.1,123.16-95.91,35.42-4.9,45.23-11.99,45.23-30.52,0-17.44-17.44-27.79-45.23-27.79-32.15,0-45.23,15.8-48.5,39.78h-65.94c1.09-55.58,31.61-94.28,117.71-94.28s114.44,38.15,114.44,105.72v169.48h-65.94ZM226.47,310.43c-7.08,7.08-19.62,10.9-45.78,15.8-40.33,7.63-53.41,19.07-53.41,41.96,0,20.16,11.99,29.97,34.33,29.97,36.51,0,63.76-26.7,64.3-58.31l.54-29.43Z"/>
    <path d="M514.2,441.76l-.54-32.7c-16.89,27.25-41.96,39.78-74.66,39.78-67.57,0-116.07-53.41-116.07-143.87,0-81.2,40.87-138.42,110.08-138.42,33.24,0,59.4,13.62,79.56,41.96V75.55h69.75v366.21h-68.12ZM515.29,314.24c0-58.31-20.16-87.19-59.4-87.19-41.42,0-61.03,27.79-61.03,82.83,0,47.96,25.07,81.2,60.49,81.2s59.94-31.61,59.94-76.84Z"/>
    <path d="M854.8,344.76c-7.63,62.12-58.31,104.09-123.16,104.09-73.02,0-123.16-48.5-123.16-144.41s50.14-137.87,125.34-137.87c69.75,0,117.16,39.78,121.52,103h-71.39c-3.82-27.79-23.98-44.14-50.68-44.14-29.97,0-54.5,19.07-54.5,77.38s24.52,86.65,52.32,86.65,49.59-15.8,52.32-44.69h71.39Z"/>
    <path d="M875.5,441.76V173.64h66.48v32.15c23.43-35.97,50.68-39.24,79.56-39.24h9.26v72.48c-6.54-1.09-13.08-1.63-19.62-1.63-43.6,0-64.85,21.8-64.85,64.85v139.51h-70.84Z"/>
    <path d="M1205.21,441.76c-2.18-6.54-3.81-15.8-4.36-23.98-16.89,18.53-45.23,31.06-81.2,31.06-61.04,0-89.37-29.97-89.37-73.57,0-77.38,51.77-86.1,123.16-95.91,35.42-4.9,45.23-11.99,45.23-30.52,0-17.44-17.44-27.79-45.23-27.79-32.15,0-45.23,15.8-48.5,39.78h-65.94c1.09-55.58,31.61-94.28,117.71-94.28s114.44,38.15,114.44,105.72v169.48h-65.94ZM1200.3,310.43c-7.08,7.08-19.62,10.9-45.78,15.8-40.33,7.63-53.41,19.07-53.41,41.96,0,20.16,11.99,29.97,34.33,29.97,36.51,0,63.76-26.7,64.3-58.31l.54-29.43Z"/>
    <path d="M1315.29,441.76v-217.98h-39.78v-50.14h39.78c0-65.39,37.6-98.09,113.9-98.09v57.22c-35.97,0-44.14,9.81-44.14,40.87h45.78v50.14h-45.78v217.98h-69.75Z"/>
    <path d="M1600.3,265.19h65.94v76.29c0,56.68-32.7,107.36-108.45,107.36s-109.54-50.13-109.54-107.9V101.16h69.75v72.48h148.23v50.14h-148.23v110.08c0,33.79,11.99,53.41,40.87,53.41s41.42-19.07,41.42-52.32v-69.75Z"/>
  </g>
  <path d="M1722.41,187.16c-31,0-55.85-24.86-55.85-55.85s24.86-56.15,55.85-56.15,56.15,25.15,56.15,56.15-25.15,55.85-56.15,55.85ZM1722.41,84.22c-26.03,0-47.08,21.05-47.08,47.08s21.05,47.08,47.08,47.08,47.08-21.05,47.08-47.08-21.05-47.08-47.08-47.08ZM1733.23,154.41v-13.16c0-4.97-1.75-7.02-7.9-7.02h-11.41v20.18h-10.53v-51.17h26.03c9.65,0,15.79,6.43,15.79,14.91,0,5.26-2.63,9.94-7.6,11.7,4.68,1.46,6.14,4.09,6.14,9.94v14.62h-10.53ZM1713.93,112v13.74h13.45c5.56,0,7.9-2.92,7.9-6.73,0-4.09-2.34-7.02-7.6-7.02h-13.74Z"/>
</svg>